<svg xmlns="http://www.w3.org/2000/svg">
<defs><linearGradient id="metal" x2="1" y2="1"><stop stop-color="#617772"/><stop offset="1" stop-color="#1d3530"/></linearGradient><linearGradient id="light" x2="1" y2="1"><stop stop-color="#f9f8f0"/><stop offset="1" stop-color="#bcbcaf"/></linearGradient></defs>
<symbol id="headphones" viewBox="0 0 200 160"><ellipse cx="101" cy="140" rx="47" ry="5" fill="#172f2212"/><path d="M54 98V70c0-62 92-62 92 0v28" fill="none" stroke="#25443b" stroke-width="15"/><path d="M61 70c0-52 78-52 78 0" fill="none" stroke="#91a39c" stroke-width="5"/><rect x="42" y="75" width="29" height="55" rx="13" fill="url(#metal)" transform="rotate(-9 56 102)"/><rect x="129" y="75" width="29" height="55" rx="13" fill="url(#metal)" transform="rotate(9 143 102)"/><path d="M52 87v25M149 87v25" stroke="#a9b8b1" stroke-width="3" stroke-linecap="round"/></symbol>
<symbol id="keyboard" viewBox="0 0 200 160"><ellipse cx="100" cy="126" rx="75" ry="7" fill="#172f2212"/><g transform="rotate(-10 100 85)"><rect x="21" y="52" width="158" height="63" rx="9" fill="#33473d"/><rect x="25" y="48" width="150" height="62" rx="7" fill="#dfded1"/><path d="M35 59h125M35 73h125M35 87h125" stroke="#a8ad9e" stroke-width="10" stroke-dasharray="10 4"/><rect x="70" y="96" width="56" height="6" rx="2" fill="#9aaf96"/><rect x="34" y="55" width="11" height="9" rx="2" fill="#597c60"/></g></symbol>
<symbol id="speaker" viewBox="0 0 200 160"><ellipse cx="100" cy="137" rx="40" ry="5" fill="#172f2212"/><rect x="64" y="26" width="73" height="106" rx="27" fill="url(#metal)"/><path d="M75 49h51M73 57h55M73 65h55M73 73h55M73 81h55M73 89h55M73 97h55M76 105h48M83 113h34" stroke="#7f9286" stroke-width="2" opacity=".7"/><ellipse cx="100" cy="30" rx="20" ry="6" fill="#a8b5a8"/><circle cx="100" cy="30" r="2" fill="#33473d"/></symbol>
<symbol id="lamp" viewBox="0 0 200 160"><ellipse cx="104" cy="139" rx="40" ry="5" fill="#172f2212"/><ellipse cx="104" cy="130" rx="29" ry="7" fill="#4e6857"/><path d="M104 128V93l23-51" fill="none" stroke="#597360" stroke-width="7"/><circle cx="104" cy="91" r="7" fill="#b1c3aa"/><path d="M133 37c-17-18-43-8-47 12l-5 14 55 15z" fill="#758e72"/><ellipse cx="108" cy="70" rx="29" ry="7" transform="rotate(15 108 70)" fill="#eeefcb"/></symbol>
<symbol id="microphone" viewBox="0 0 200 160"><ellipse cx="100" cy="140" rx="33" ry="5" fill="#172f2212"/><path d="M100 99v34M74 133h52" stroke="#33473d" stroke-width="7" stroke-linecap="round"/><path d="M71 67v10a29 29 0 0 0 58 0V67" fill="none" stroke="#708573" stroke-width="5"/><rect x="81" y="22" width="38" height="70" rx="19" fill="url(#metal)"/><path d="M89 33h22M87 41h26M87 49h26M87 57h26M87 65h26" stroke="#a1ad9b" stroke-width="2"/><circle cx="100" cy="79" r="3" fill="#c2d594"/></symbol>
<symbol id="bag" viewBox="0 0 200 160"><ellipse cx="100" cy="141" rx="39" ry="5" fill="#172f2212"/><path d="M87 38V23h26v15" fill="none" stroke="#6c7256" stroke-width="7"/><path d="M64 59c0-40 73-40 73 0l6 59q0 19-20 19H78q-20 0-20-19z" fill="#8d9974"/><path d="M70 54q30-32 61 0" fill="none" stroke="#c7ccac" stroke-width="3"/><rect x="71" y="83" width="60" height="42" rx="10" fill="#728262"/><path d="M76 92h49" stroke="#d0d4b6" stroke-width="2"/><rect x="91" y="61" width="20" height="10" rx="2" fill="#ddd7b6"/></symbol>
<symbol id="mouse" viewBox="0 0 200 160"><ellipse cx="101" cy="137" rx="36" ry="6" fill="#172f2212"/><g transform="rotate(-18 100 80)"><rect x="66" y="28" width="69" height="101" rx="35" fill="url(#light)"/><path d="M100 30v36M68 76h64" stroke="#a5aa9d" stroke-width="1.5"/><rect x="97" y="43" width="6" height="19" rx="3" fill="#506250"/></g></symbol>
<symbol id="hub" viewBox="0 0 200 160"><ellipse cx="97" cy="133" rx="56" ry="5" fill="#172f2212"/><path d="M138 81q25 0 25-29V31" fill="none" stroke="#495e52" stroke-width="5"/><rect x="157" y="19" width="12" height="19" rx="3" fill="#657b6b"/><g transform="rotate(-10 94 92)"><rect x="41" y="64" width="110" height="51" rx="11" fill="url(#light)"/><path d="M53 102h16m10 0h16m10 0h29" stroke="#4c5c50" stroke-width="6"/><text x="96" y="84" text-anchor="middle" fill="#738471" font-family="sans-serif" font-size="9" letter-spacing="3">NOVA</text></g></symbol>
<symbol id="box" viewBox="0 0 200 160"><path d="m100 30 53 29v60l-53 27-53-27V59z" fill="#a5b694"/><path d="m47 59 53 28 53-28M100 87v59" fill="none" stroke="#587359" stroke-width="2"/><path d="m74 45 54 29v21" fill="none" stroke="#dfe4c8" stroke-width="9"/></symbol></svg>